/kaggle/working/opencap-processing/OpenCapData_ab7eb7cf-817d-4035-a30b-ee68773906cb/OpenSimData/Dynamics/Suhasno_1/GRF_resultant_Suhasno_1_Suhasno_1_window_2.mot
version=1
nRows=20
nColumns=19
inDegrees=yes
endheader 
time	ground_force_right_vx	ground_force_right_vy	ground_force_right_vz	ground_force_right_px	ground_force_right_py	ground_force_right_pz	ground_torque_right_x	ground_torque_right_y	ground_torque_right_z	ground_force_left_vx	ground_force_left_vy	ground_force_left_vz	ground_force_left_px	ground_force_left_py	ground_force_left_pz	ground_torque_left_x	ground_torque_left_y	ground_torque_left_z	
          2.00000000	          0.00000031	          0.00000393	          0.00000389	          1.69673995	          0.00000000	          0.27621307	          0.00000000	          0.00000000	          0.00000000	          4.21976972	        585.29607561	        -21.13785655	          1.97758975	          0.00000000	         -0.15118084	          0.00000000	          1.13351302	          0.00000000	
          2.05000000	          0.00080740	          0.00358666	          0.00376109	          1.75934801	          0.00000000	          0.29070837	          0.00000000	          0.00000029	          0.00000000	         -2.87771120	        545.69870474	        -17.88884091	          2.00945246	          0.00000000	         -0.15480192	          0.00000000	          0.21509635	          0.00000000	
          2.10000000	         -2.08989759	          4.70255435	          4.27303606	          1.77503152	          0.00000000	          0.28264484	          0.00000000	          0.00000008	          0.00000000	        -24.33705805	        694.91573730	          2.46527284	          1.98982065	          0.00000000	         -0.16483380	          0.00000000	         -0.07701508	          0.00000000	
          2.15000000	         -4.53394708	          4.40705506	          0.32753069	          1.79595526	          0.00000000	          0.27609554	          0.00000000	         -0.00000001	          0.00000000	        183.26261098	       2059.84341346	        -29.04627797	          1.93970864	          0.00000000	         -0.15565499	          0.00000000	         11.91878378	          0.00000000	
          2.20000000	          0.00000000	         -0.00000000	         -0.00000000	          0.00000000	          0.00000000	          0.00000000	          0.00000000	          0.00000000	          0.00000000	         -0.00000000	         -0.00000000	          0.00000000	          0.00000000	          0.00000000	          0.00000000	          0.00000000	          0.00000000	          0.00000000	
          2.25000000	          0.00000000	         -0.00000000	         -0.00000000	          0.00000000	          0.00000000	          0.00000000	          0.00000000	          0.00000000	          0.00000000	         -0.00000000	         -0.00000000	          0.00000000	          0.00000000	          0.00000000	          0.00000000	          0.00000000	          0.00000000	          0.00000000	
          2.30000000	          0.00000000	         -0.00000000	         -0.00000000	          0.00000000	          0.00000000	          0.00000000	          0.00000000	          0.00000000	          0.00000000	         -0.00000000	         -0.00000000	          0.00000000	          0.00000000	          0.00000000	          0.00000000	          0.00000000	          0.00000000	          0.00000000	
          2.35000000	         -0.00000000	         -0.00000000	          0.00000000	          0.00000000	          0.00000000	          0.00000000	          0.00000000	          0.00000000	          0.00000000	         -0.00000000	         -0.00000000	         -0.00000000	          0.00000000	          0.00000000	          0.00000000	          0.00000000	          0.00000000	          0.00000000	
          2.40000000	         -0.00000000	         -0.00000000	          0.00000000	          0.00000000	          0.00000000	          0.00000000	          0.00000000	          0.00000000	          0.00000000	         -0.00000000	         -0.00000000	         -0.00000000	          0.00000000	          0.00000000	          0.00000000	          0.00000000	          0.00000000	          0.00000000	
          2.45000000	         -0.00000000	         -0.00000000	          0.00000000	          0.00000000	          0.00000000	          0.00000000	          0.00000000	          0.00000000	          0.00000000	         -0.00000000	         -0.00000000	         -0.00000000	          0.00000000	          0.00000000	          0.00000000	          0.00000000	          0.00000000	          0.00000000	
          2.50000000	         -0.00000000	         -0.00000000	          0.00000000	          0.00000000	          0.00000000	          0.00000000	          0.00000000	          0.00000000	          0.00000000	         -0.00000000	         -0.00000000	          0.00000000	          0.00000000	          0.00000000	          0.00000000	          0.00000000	          0.00000000	          0.00000000	
          2.55000000	         -0.00000000	         -0.00000000	          0.00000000	          0.00000000	          0.00000000	          0.00000000	          0.00000000	          0.00000000	          0.00000000	         -0.00000000	         -0.00000000	          0.00000000	          0.00000000	          0.00000000	          0.00000000	          0.00000000	          0.00000000	          0.00000000	
          2.60000000	         -0.00000000	          0.00000000	          0.00000000	          0.00000000	          0.00000000	          0.00000000	          0.00000000	          0.00000000	          0.00000000	         -0.00000000	         -0.00000000	          0.00000000	          0.00000000	          0.00000000	          0.00000000	          0.00000000	          0.00000000	          0.00000000	
          2.65000000	         -0.00000000	          0.00000000	         -0.00000000	          0.00000000	          0.00000000	          0.00000000	          0.00000000	          0.00000000	          0.00000000	         -0.00000000	         -0.00000000	         -0.00000000	          0.00000000	          0.00000000	          0.00000000	          0.00000000	          0.00000000	          0.00000000	
          2.70000000	         -0.00000000	          0.00000000	         -0.00000000	          0.00000000	          0.00000000	          0.00000000	          0.00000000	          0.00000000	          0.00000000	         -0.00120859	          0.00181421	         -0.00148277	          2.14177136	          0.00000000	         -0.11788496	          0.00000000	          0.00000187	          0.00000000	
          2.75000000	          0.00000800	          0.00000691	         -0.00000082	          2.24979093	          0.00000000	          0.05151645	          0.00000000	          0.00000002	          0.00000000	        299.02013791	       2055.91817051	        -96.18254426	          2.14223363	          0.00000000	         -0.08213660	          0.00000000	         11.64488188	          0.00000000	
          2.80000000	         12.34904370	         12.45273839	          9.03509855	          2.21358034	          0.00000000	          0.03892724	          0.00000000	          0.10703075	          0.00000000	         28.29476898	        753.01404270	          2.80326190	          2.14912075	          0.00000000	         -0.07585801	          0.00000000	         11.43184413	          0.00000000	
          2.85000000	        145.05837916	        119.76450480	          8.52384964	          2.19856088	          0.00000000	          0.03777131	          0.00000000	          1.15319665	          0.00000000	       -166.75056938	        335.90480030	       -101.90270692	          2.15492909	          0.00000000	         -0.09078892	          0.00000000	          0.84498664	          0.00000000	
          2.90000000	        169.46427140	        134.23426132	         12.66474760	          2.18072765	          0.00000000	          0.04015155	          0.00000000	          0.66169870	          0.00000000	       -188.03701463	        274.49196200	        -76.55288977	          2.16118874	          0.00000000	         -0.08639777	          0.00000000	         -1.05687732	          0.00000000	
          2.95000000	        113.89320959	        103.98711987	         59.81877404	          2.14346320	          0.00000000	          0.02820529	          0.00000000	          0.34780561	          0.00000000	       -114.21134344	        186.67065597	        -81.83699639	          2.17241724	          0.00000000	         -0.08629737	          0.00000000	         -0.70595197	          0.00000000	
